<svg width="32" height="32" viewBox="0 0 32 32" fill="none" xmlns="http://www.w3.org/2000/svg">
  <rect width="32" height="32" rx="8" fill="#FF6B9D"/>
  <path d="M16 6C13.2386 6 11 8.23858 11 11C11 13.7614 13.2386 16 16 16C18.7614 16 21 13.7614 21 11C21 8.23858 18.7614 6 16 6Z" fill="white"/>
  <path d="M22.5 14.5C21.1193 14.5 20 15.6193 20 17C20 18.3807 21.1193 19.5 22.5 19.5C23.8807 19.5 25 18.3807 25 17C25 15.6193 23.8807 14.5 22.5 14.5Z" fill="white"/>
  <path d="M9.5 14.5C8.11929 14.5 7 15.6193 7 17C7 18.3807 8.11929 19.5 9.5 19.5C10.8807 19.5 12 18.3807 12 17C12 15.6193 10.8807 14.5 9.5 14.5Z" fill="white"/>
  <path d="M16 18C12.134 18 9 21.134 9 25V26H23V25C23 21.134 19.866 18 16 18Z" fill="white"/>
</svg>
